<svg xmlns="http://www.w3.org/2000/svg" width="20" height="20" viewBox="0 0 27.884 27.9"><g transform="translate(-98.941 -750.422)"><path d="M126.825,773.037v.545a4.938,4.938,0,0,1-.253.6c-.489.828-.978,1.656-1.491,2.469a3.12,3.12,0,0,1-1.992,1.408c-.475.111-.959.18-1.44.267h-1.307c-.491-.08-.985-.139-1.471-.242a16.121,16.121,0,0,1-4.814-1.959,33.774,33.774,0,0,1-6.067-4.678,45.748,45.748,0,0,1-4.632-5.017,23.238,23.238,0,0,1-3.632-6.162,10.614,10.614,0,0,1-.779-4.116,11.584,11.584,0,0,1,.32-2.2,2.856,2.856,0,0,1,1.322-1.767q1.229-.778,2.492-1.5a1.593,1.593,0,0,1,2.229.5q1.895,2.793,3.746,5.614a1.618,1.618,0,0,1-.39,2.255c-.638.51-1.288,1-1.932,1.507a.772.772,0,0,0-.24,1.156,17.537,17.537,0,0,0,2.887,3.972,28.445,28.445,0,0,0,4.537,4.1c.552.378,1.143.7,1.727,1.029a.718.718,0,0,0,1.023-.248c.476-.607.947-1.218,1.42-1.827a1.691,1.691,0,0,1,2.56-.421c1.691,1.127,3.376,2.264,5.076,3.377A2.3,2.3,0,0,1,126.825,773.037Z" transform="translate(0)" fill="#fff"/></g></svg>
