<svg xmlns="http://www.w3.org/2000/svg" width="33.352" height="25" viewBox="0 0 33.352 25"><g transform="translate(-2343.376 -464.178)"><path d="M2376.787,518.015v.682q0,7,0,14A3.09,3.09,0,0,1,2373.5,536q-13.377.006-26.754,0a3.09,3.09,0,0,1-3.3-3.293q0-7,0-14v-.669c.242.147.422.248.593.362q6.412,4.269,12.822,8.541c2.343,1.562,4.169,1.566,6.5.013l12.822-8.544Z" transform="translate(-0.059 -46.825)" fill="#fff"/><path d="M2360.11,464.18c4.472,0,8.944-.007,13.416,0a3.082,3.082,0,0,1,3.2,3.2,2.782,2.782,0,0,1-1.28,2.3q-6.863,4.6-13.749,9.159a2.856,2.856,0,0,1-3.313-.021q-6.862-4.537-13.691-9.125a2.881,2.881,0,0,1-1.159-3.376,3.121,3.121,0,0,1,3.031-2.133Q2353.336,464.171,2360.11,464.18Z" transform="translate(0 0)" fill="#fff"/></g></svg>
