<?xml version="1.0" encoding="utf-8"?>
<!-- Generator: Adobe Illustrator 24.0.1, SVG Export Plug-In . SVG Version: 6.00 Build 0)  -->
<svg version="1.1" id="Layer_1" xmlns="http://www.w3.org/2000/svg" xmlns:xlink="http://www.w3.org/1999/xlink" x="0px" y="0px"
	 viewBox="0 0 942.72 1360" style="enable-background:new 0 0 942.72 1360;" xml:space="preserve">
<g>
	<defs>
		<rect id="SVGID_1_" x="80.72" width="862" height="1360"/>
	</defs>
	<defs>
		<rect id="SVGID_2_" x="81.22" y="0.5" width="861" height="1359"/>
	</defs>
	<clipPath id="SVGID_3_">
		<use xlink:href="#SVGID_1_"  style="overflow:visible;"/>
	</clipPath>
	<clipPath id="SVGID_4_" class="st0">
		<use xlink:href="#SVGID_2_"  style="overflow:visible;"/>
	</clipPath>
	<g id="Group_21" transform="translate(-174.922 1434.849)" class="st1">
		<path id="Path_41" class="st2" d="M1055.86-1365.69c29.42-29.19,76.88-29.19,106.3,0l169.99,170.06
			c29.19,29.4,29.19,76.84,0,106.24L968.61-725.84c-26.11,26.1-67.05,28.79-96.3,8.25c-4.81-3-9.27-6.54-13.29-10.53L495.48-1091.6
			c-29.19-29.42-29.19-76.88,0-106.31l170.06-169.99c29.37-29.26,76.87-29.26,106.24,0l2.21,2.22
			c37.34,37.44,88.06,58.45,140.93,58.38C967.8-1307.23,1018.52-1328.25,1055.86-1365.69z"/>
		<path id="Path_42" class="st2" d="M1006.35-116.86c19.17,19.02,50.1,19.02,69.27,0l110.77-110.81
			c19.02-19.02,19.02-50.16-1.05-68.73L948.45-533.28c-15.96-17.51-42.64-19.26-61.71-5.88c-3.14,1.96-6.04,4.26-8.66,6.86
			L641.2-295.45c-19.02,19.17-19.02,50.1,0,69.27l110.82,110.77c19.13,19.07,50.09,19.07,69.22,0l1.45-1.44
			c24.33-24.4,57.38-38.09,91.83-38.04C948.97-154.95,982.02-141.26,1006.35-116.86z"/>
		<path id="Path_43" class="st2" d="M1550.67-500.96c25.77,25.97,25.77,67.87,0,93.84l-150.12,150.06
			c-25.95,25.77-67.83,25.77-93.78,0L985.85-577.98c-22.67-22.85-25.73-58.64-7.29-85.01c2.65-4.25,5.77-8.18,9.3-11.73
			l320.86-320.92c25.97-25.77,67.87-25.77,93.84,0l150.06,150.12c25.83,25.92,25.83,67.86,0,93.78l-1.96,1.95
			c-33.05,32.96-51.6,77.74-51.54,124.41C1499.07-578.69,1517.62-533.92,1550.67-500.96z"/>
		<path id="Path_44" class="st2" d="M276.97-500.96c-25.77,25.97-25.77,67.87,0,93.84l150.12,150.06
			c25.95,25.77,67.83,25.77,93.78,0l320.92-320.92c22.66-22.85,25.73-58.64,7.29-85.01c-2.65-4.24-5.77-8.18-9.3-11.73
			L518.92-995.63c-25.97-25.77-67.87-25.77-93.84,0L275.02-845.51c-25.83,25.92-25.83,67.86,0,93.78l1.95,1.95
			c33.05,32.96,51.6,77.74,51.54,124.41C328.57-578.69,310.02-533.92,276.97-500.96z"/>
	</g>
</g>
</svg>
