<svg xmlns="http://www.w3.org/2000/svg" width="20" height="20" viewBox="0 0 75.065 74.86"><g transform="translate(-393.633 -395.448)"><path d="M431.311,470.172c-5.615,0-11.234.138-16.844-.029-11.287-.337-19.477-8.1-20.232-19.33a265.929,265.929,0,0,1,.036-36.307c.692-9.961,8.029-17.393,18-18.508a83.708,83.708,0,0,1,9.348-.55q13.039.011,26.077.269c11.7.249,19.9,7.93,20.69,19.631.4,5.934.3,11.907.292,17.862,0,5.858-.014,11.723-.3,17.572a19.668,19.668,0,0,1-18.051,19.06A167.364,167.364,0,0,1,431.311,470.172Zm.076-6.733a181.941,181.941,0,0,0,18.572-.348A12.186,12.186,0,0,0,461.1,453.22a39.148,39.148,0,0,0,.838-8.557c.009-9.714,0-19.434-.313-29.141-.213-6.638-4.351-11.259-10.852-12.505a43.176,43.176,0,0,0-8.292-.681c-9.711.046-19.434-.013-29.128.464-7.167.352-12.171,5.649-12.325,12.847-.242,11.367-.295,22.748-.014,34.113.206,8.358,5.745,13.469,14.121,13.656C420.548,463.537,425.969,463.439,431.387,463.439Z" transform="translate(0)" fill="#fff"/><path d="M456.507,476.807a19.242,19.242,0,1,1,19.284,19.272A19.271,19.271,0,0,1,456.507,476.807Zm6.767-.147a12.479,12.479,0,1,0,12.544-12.431A12.54,12.54,0,0,0,463.274,476.66Z" transform="translate(-44.437 -43.82)" fill="#fff"/><path d="M584.145,444.048a4.473,4.473,0,1,1-8.945-.071,4.473,4.473,0,1,1,8.945.071Z" transform="translate(-128.324 -31.151)" fill="#fff"/></g></svg>
