<svg xmlns="http://www.w3.org/2000/svg" width="23.54" height="35.329" viewBox="0 0 23.54 35.329"><g transform="translate(-103.024 -943.196)"><path d="M115.481,943.2c.755.131,1.521.223,2.265.4a11.208,11.208,0,0,1,5.352,3.046,11.466,11.466,0,0,1,3.241,6.078,11.6,11.6,0,0,1-1.273,8q-4.743,8.6-9.5,17.183a1.722,1.722,0,0,1-.29.422.726.726,0,0,1-1.174-.271c-.745-1.334-1.48-2.672-2.218-4.009q-3.634-6.571-7.271-13.141a11.8,11.8,0,0,1-1.587-5.784,11.587,11.587,0,0,1,3.637-8.641,11.443,11.443,0,0,1,5.574-2.991c.613-.137,1.244-.2,1.866-.291Zm-.652,5.886a5.888,5.888,0,1,0,5.841,5.953A5.894,5.894,0,0,0,114.829,949.082Z" transform="translate(0 0)" fill="#fff"/></g></svg>
