<?xml version="1.0" encoding="utf-8"?>
<!-- Generator: Adobe Illustrator 24.0.1, SVG Export Plug-In . SVG Version: 6.00 Build 0)  -->
<svg version="1.1" id="Layer_1" xmlns="http://www.w3.org/2000/svg" xmlns:xlink="http://www.w3.org/1999/xlink" x="0px" y="0px"
	 viewBox="0 0 1271 1876" style="enable-background:new 0 0 1271 1876;" xml:space="preserve">
<g>
	<defs>
		<rect id="SVGID_1_" width="1271" height="1876"/>
	</defs>
	<defs>
		<rect id="SVGID_2_" x="0.5" y="0.5" width="1270" height="1875"/>
	</defs>
	<clipPath id="SVGID_3_">
		<use xlink:href="#SVGID_1_"  style="overflow:visible;"/>
	</clipPath>
	<clipPath id="SVGID_4_" class="st0">
		<use xlink:href="#SVGID_2_"  style="overflow:visible;"/>
	</clipPath>
	<g id="Group_290" transform="translate(-82.922 1472.849)" class="st1">
		<path id="Path_41" class="st2" d="M1254.47-1357.25c39.47-39.39,103.94-39.39,143.41,0l229.33,229.42
			c39.39,39.38,39.39,103.85,0,143.32l-490.44,490.45c-35.22,35.21-90.45,38.84-129.92,11.13c-6.49-4.05-12.5-8.82-17.92-14.21
			L498.47-987.5c-39.38-39.47-39.38-103.94,0-143.41l229.43-229.33c39.38-39.47,103.85-39.47,143.32,0l2.99,2.99
			c50.37,50.51,118.8,78.86,190.13,78.77C1135.67-1278.4,1204.1-1306.75,1254.47-1357.25z"/>
		<path id="Path_42" class="st2" d="M1187.67,327.49c25.86,25.66,67.58,25.66,93.45,0L1430.56,178
			c25.66-25.66,25.66-67.67-1.41-92.72l-319.58-319.57c-21.54-23.62-57.52-25.98-83.24-7.93c-4.23,2.64-8.15,5.75-11.68,9.26
			L695.07,86.56c-25.66,25.86-25.66,67.58,0,93.45l149.49,149.43c25.81,25.73,67.57,25.73,93.38,0l1.95-1.95
			c68.4-68.42,179.32-68.43,247.74-0.03C1187.65,327.47,1187.66,327.48,1187.67,327.49L1187.67,327.49z"/>
		<path id="Path_43" class="st2" d="M1921.99-190.68c34.77,35.04,34.77,91.56,0,126.6l-202.52,202.44
			c-34.77,34.76-91.67,34.76-126.52,0l-432.94-432.94c-31.09-31.09-34.29-79.84-9.83-114.68c3.58-5.73,7.79-11.04,12.55-15.82
			l432.86-432.94c35.04-34.77,91.56-34.77,126.6,0l202.44,202.52c34.85,34.76,34.85,91.67,0,126.52l-2.64,2.63
			c-44.59,44.47-69.61,104.87-69.53,167.84C1852.38-295.55,1877.41-235.15,1921.99-190.68z"/>
		<path id="Path_44" class="st2" d="M203.69-190.68c-34.76,35.04-34.76,91.56,0,126.6l202.53,202.44
			c34.76,34.76,91.67,34.76,126.52,0l432.94-432.94c31.09-31.09,34.29-79.84,9.83-114.68c-3.58-5.73-7.79-11.03-12.55-15.82
			L530.1-858.03c-35.04-34.77-91.56-34.77-126.6,0L201.06-655.5c-34.85,34.76-34.85,91.67,0,126.52l2.63,2.63
			c44.59,44.47,69.61,104.87,69.53,167.84C273.3-295.55,248.28-235.15,203.69-190.68z"/>
	</g>
</g>
</svg>
