<svg xmlns="http://www.w3.org/2000/svg" width="22" height="22" viewBox="0 0 31.928 31.87"><g transform="translate(-98.897 -848.336)"><path d="M98.9,867.314c.331.006.664.017,1,.018q2.728,0,5.457,0h.323c.13,1.366.206,2.693.4,4s.5,2.583.757,3.906c-.346.108-.751.2-1.131.357-.969.4-1.929.816-2.889,1.233-.153.067-.25.12-.39-.056a15.963,15.963,0,0,1-3.232-7c-.112-.58-.155-1.172-.233-1.759-.012-.091-.036-.18-.056-.272Z" transform="translate(0 -2.511)" fill="#fff"/><path d="M98.9,864.189c.082-.6.148-1.209.246-1.811a15.189,15.189,0,0,1,2.013-5.421c.417-.691.9-1.339,1.32-1.949l4.334,1.727c-.244,1.238-.551,2.529-.742,3.837s-.266,2.637-.395,3.991H98.9Z" transform="translate(0 -0.883)" fill="#fff"/><path d="M115.677,883.942a5.733,5.733,0,0,1-2.331-1.115,9.536,9.536,0,0,1-2.405-3.027c-.421-.806-.775-1.648-1.178-2.516a28.753,28.753,0,0,1,5.977-.71v7.368Z" transform="translate(-1.438 -3.736)" fill="#fff"/><path d="M117.945,883.943v-7.362a28.6,28.6,0,0,1,5.934.688c-.169.424-.317.829-.491,1.222a11.778,11.778,0,0,1-2.673,4.011,5.162,5.162,0,0,1-2.629,1.394.263.263,0,0,0-.078.047Z" transform="translate(-2.52 -3.737)" fill="#fff"/><path d="M130.872,876.889l-4.359-1.735a29.654,29.654,0,0,0,1.124-7.788h6.842A15.934,15.934,0,0,1,130.872,876.889Z" transform="translate(-3.654 -2.518)" fill="#fff"/><path d="M134.479,864.557H127.64a29.7,29.7,0,0,0-1.13-7.8l4.36-1.734A15.922,15.922,0,0,1,134.479,864.557Z" transform="translate(-3.653 -0.885)" fill="#fff"/><path d="M109.229,874.962a28.574,28.574,0,0,1-1.13-7.6h7.4v6.85A30.572,30.572,0,0,0,109.229,874.962Z" transform="translate(-1.218 -2.517)" fill="#fff"/><path d="M125.351,867.369a27.427,27.427,0,0,1-1.127,7.585,30.611,30.611,0,0,0-6.252-.738v-6.847Z" transform="translate(-2.524 -2.518)" fill="#fff"/><path d="M115.5,858v6.842h-7.4a28.449,28.449,0,0,1,1.125-7.594A30.983,30.983,0,0,0,115.5,858Z" transform="translate(-1.218 -1.179)" fill="#fff"/><path d="M117.962,864.839V858a30.863,30.863,0,0,0,6.273-.758,28.491,28.491,0,0,1,1.136,7.6Z" transform="translate(-2.522 -1.178)" fill="#fff"/><path d="M109.808,854.975c.9-2.3,1.931-4.47,4.038-5.907a4.288,4.288,0,0,1,1.879-.731v7.329A28.27,28.27,0,0,1,109.808,854.975Z" transform="translate(-1.444 0)" fill="#fff"/><path d="M117.976,848.336a4.718,4.718,0,0,1,2.237.986,9.332,9.332,0,0,1,2.576,3.2c.409.787.75,1.609,1.133,2.443a28.457,28.457,0,0,1-5.946.7Z" transform="translate(-2.524)" fill="#fff"/><path d="M104.046,879.092l3.859-1.481a14.711,14.711,0,0,0,3.592,5.942,15.66,15.66,0,0,1-7.445-4.332Z" transform="translate(-0.681 -3.873)" fill="#fff"/><path d="M121.941,848.87a16.048,16.048,0,0,1,7.493,4.393,18.31,18.31,0,0,1-3.878,1.5C123.8,850.638,123.571,850.834,121.941,848.87Z" transform="translate(-3.049 -0.071)" fill="#fff"/><path d="M104.039,853.283c1.45-1.781,5.794-4.318,7.457-4.345a14.33,14.33,0,0,0-3.569,5.838A18.794,18.794,0,0,1,104.039,853.283Z" transform="translate(-0.68 -0.08)" fill="#fff"/><path d="M121.976,883.566a14.669,14.669,0,0,0,3.558-5.863,18.545,18.545,0,0,1,3.909,1.5A15.808,15.808,0,0,1,121.976,883.566Z" transform="translate(-3.054 -3.886)" fill="#fff"/></g></svg>
